<svg width="108" height="108" viewBox="0 0 108 108" fill="none" xmlns="http://www.w3.org/2000/svg">
<rect width="108" height="108" fill="#0F0140"/>
<path fill-rule="evenodd" clip-rule="evenodd" d="M50.6203 53.9245C50.4676 53.1393 50.3867 52.3195 50.3867 51.4762C50.3867 45.7293 54.1438 41.0706 58.7783 41.0706C62.2913 41.0706 65.3002 43.7475 66.5507 47.546C69.5329 44.8816 73.4771 44.0678 76.5195 45.8243C80.5331 48.1416 81.4574 54.0547 78.584 59.0316C78.1624 59.7619 77.6824 60.4315 77.1575 61.0351L77.1799 61.0411L76.4557 61.8786C68.2148 71.4086 52.6054 66.8996 50.6768 54.4491C50.6251 54.1155 50.5961 53.9305 50.5934 53.9173L50.6203 53.9245Z" fill="#CB3D81"/>
<path fill-rule="evenodd" clip-rule="evenodd" d="M29.1488 56.4271C28.7981 55.7082 28.5078 54.9373 28.2896 54.1228C26.8022 48.5718 29.2254 43.0994 33.7021 41.8999C37.0959 40.9905 40.6957 42.7981 42.8866 46.1445C45.0775 42.7981 48.6772 40.9905 52.0711 41.8999C56.5477 43.0994 58.9709 48.5718 57.4835 54.1228C57.2653 54.9373 56.975 55.7082 56.6243 56.4271H56.6437L56.1609 57.4235C50.6675 68.7617 34.4228 68.4463 29.3375 56.9193C29.2013 56.6104 29.1254 56.4392 29.1193 56.4271H29.1488Z" fill="white"/>
</svg>
